<svg id="Layer_1" data-name="Layer 1" xmlns="http://www.w3.org/2000/svg" viewBox="0 0 580.15 182.22"><defs><style>.cls-1{fill:#0a314f;}.cls-2{fill:#095f8a;}.cls-3{fill:#fff;}.cls-4{fill:#60a9d4;}.cls-5{fill:#00ae8f;}</style></defs><polygon class="cls-1" points="249.96 23.64 249.96 72.84 203.06 72.84 203.06 23.64 185.22 23.64 185.22 128.34 203.06 128.34 203.06 89.66 249.96 89.66 249.96 128.34 267.79 128.34 267.79 23.64 249.96 23.64"/><path class="cls-1" d="M432.16,128.34h-45.4V233h17.83V194.66h27.57a33.16,33.16,0,1,0,0-66.32Zm-27.57,17.2h27.07a16,16,0,1,1,0,31.92H404.59Z" transform="translate(-104.7 -104.7)"/><path class="cls-1" d="M562,219.48a53.47,53.47,0,1,1,0-78.71l-12.8,13.82a34.85,34.85,0,1,0,.15,51.22Z" transform="translate(-104.7 -104.7)"/><path class="cls-1" d="M655.33,219.48a53.47,53.47,0,1,1,0-78.71l-12.8,13.82a34.85,34.85,0,1,0,.15,51.22Z" transform="translate(-104.7 -104.7)"/><path class="cls-2" d="M312,279.13c0,5.86-5.53,7.79-11.24,7.79A20.92,20.92,0,0,1,289.92,284l2.46-3.9a18.27,18.27,0,0,0,8.55,2.42c3.63,0,6-.94,6-3.14,0-2.42-3.22-3.33-6.73-4.42-4.58-1.4-9.73-3-9.73-8.32a6.23,6.23,0,0,1,2.65-5.19c1.89-1.36,4.69-2.08,8.13-2.08a19.51,19.51,0,0,1,10.22,2.92l-2.39,3.78a16.19,16.19,0,0,0-8.05-2.35c-3.71,0-5.49,1.14-5.49,2.73,0,2.49,3.29,3.36,6.92,4.5C306.91,272.36,312,274.1,312,279.13Z" transform="translate(-104.7 -104.7)"/><path class="cls-2" d="M370.13,259.91l-10.78,15.93v10.51h-4.88V275.84l-10.74-15.93h5.56l7.64,11.31,7.64-11.31Z" transform="translate(-104.7 -104.7)"/><path class="cls-2" d="M423.14,279.13c0,5.86-5.52,7.79-11.24,7.79A20.88,20.88,0,0,1,401.09,284l2.45-3.9a18.27,18.27,0,0,0,8.55,2.42c3.63,0,6-.94,6-3.14,0-2.42-3.22-3.33-6.73-4.42-4.58-1.4-9.72-3-9.72-8.32a6.23,6.23,0,0,1,2.64-5.19c1.89-1.36,4.69-2.08,8.14-2.08a19.5,19.5,0,0,1,10.21,2.92l-2.38,3.78a16.25,16.25,0,0,0-8.06-2.35c-3.71,0-5.49,1.14-5.49,2.73,0,2.49,3.29,3.36,6.93,4.5C418.07,272.36,423.14,274.1,423.14,279.13Z" transform="translate(-104.7 -104.7)"/><path class="cls-2" d="M479.4,259.91v4.54h-9.27v21.9h-4.84v-21.9H456v-4.54Z" transform="translate(-104.7 -104.7)"/><path class="cls-2" d="M518.68,264.45v6.4h13.58v4.57H518.68v6.36h16.41v4.57H513.8V259.91h21.29v4.54Z" transform="translate(-104.7 -104.7)"/><path class="cls-2" d="M599,286.35h-4.84V269L586,280.42h-2.83L575,269v17.36H570.1V259.91h3.82l10.63,14.91,10.66-14.91H599Z" transform="translate(-104.7 -104.7)"/><path class="cls-2" d="M655.33,279.13c0,5.86-5.52,7.79-11.23,7.79A20.89,20.89,0,0,1,633.28,284l2.46-3.9a18.23,18.23,0,0,0,8.55,2.42c3.63,0,6-.94,6-3.14,0-2.42-3.22-3.33-6.74-4.42-4.57-1.4-9.72-3-9.72-8.32a6.23,6.23,0,0,1,2.65-5.19c1.89-1.36,4.69-2.08,8.13-2.08a19.53,19.53,0,0,1,10.22,2.92l-2.39,3.78a16.22,16.22,0,0,0-8-2.35c-3.71,0-5.49,1.14-5.49,2.73,0,2.49,3.29,3.36,6.92,4.5C650.27,272.36,655.33,274.1,655.33,279.13Z" transform="translate(-104.7 -104.7)"/><circle class="cls-1" cx="81.95" cy="81.95" r="81.95"/><path class="cls-3" d="M183.27,153.54c6.6,4.33,16.45.43,16.22-8.68h0a10.3,10.3,0,0,0-12.23-8.95C178.29,137.54,175.79,148.63,183.27,153.54Z" transform="translate(-104.7 -104.7)"/><path class="cls-3" d="M179,227.42h0c-.19,9.68,11.57,13.12,17.66,7.29a9.28,9.28,0,0,0,2.83-5.88c.18-7.76-6.46-10.35-10.69-10.16C185.57,218.87,179.88,220.87,179,227.42Z" transform="translate(-104.7 -104.7)"/><path class="cls-3" d="M204.22,217.21a12,12,0,0,0,19.66-8.43,11.41,11.41,0,0,0-12.39-11.7C201,197.9,196.43,210.5,204.22,217.21Z" transform="translate(-104.7 -104.7)"/><path class="cls-3" d="M228.82,197.42c7.56,6.34,19.87,2.09,20.5-10,0-7.8-6.35-13.72-13.86-12.94C224.45,175.66,220.24,190.22,228.82,197.42Z" transform="translate(-104.7 -104.7)"/><path class="cls-3" d="M200.28,166.05h0c1.09,11.81,14.91,14.82,21.05,7.1a11.58,11.58,0,0,0,2.43-7.48h0a12.14,12.14,0,0,0-13.37-11.55A11.64,11.64,0,0,0,200.28,166.05Z" transform="translate(-104.7 -104.7)"/><path class="cls-4" d="M156.49,217.21a12,12,0,0,0,19.67-8.43,11.41,11.41,0,0,0-12.39-11.7C153.26,197.9,148.71,210.5,156.49,217.21Z" transform="translate(-104.7 -104.7)"/><path class="cls-4" d="M181.1,197.42c7.56,6.34,19.87,2.09,20.49-10,0-7.8-6.35-13.72-13.86-12.94C176.73,175.66,172.51,190.22,181.1,197.42Z" transform="translate(-104.7 -104.7)"/><path class="cls-4" d="M152.56,166.05h0c1.09,11.81,14.91,14.82,21.05,7.1a11.7,11.7,0,0,0,2.43-7.48h0c-.79-8.95-8.29-12.14-13.37-11.55A11.64,11.64,0,0,0,152.56,166.05Z" transform="translate(-104.7 -104.7)"/><path class="cls-5" d="M132.59,197.42c7.56,6.34,19.87,2.09,20.5-10,0-7.8-6.35-13.72-13.86-12.94C128.23,175.66,124,190.22,132.59,197.42Z" transform="translate(-104.7 -104.7)"/><path class="cls-1" d="M668.64,130.35h-2.56v-2h7.3v2h-2.54v6.59h-2.2Zm7.31-2h2.56l1.19,2.92.66,2h.11l.69-2,1.16-2.92h2.53v8.6h-2V133.8l.25-3.06H683l-1.77,4.9h-1.59l-1.77-4.9h-.11l.25,3.06v3.14h-2Z" transform="translate(-104.7 -104.7)"/></svg>