<?xml version="1.0" encoding="UTF-8"?>
<svg id="Layer_2" data-name="Layer 2" xmlns="http://www.w3.org/2000/svg" width="580.15" height="182.22" viewBox="0 0 580.15 182.22">
  <g id="Layer_1-2" data-name="Layer 1">
    <g>
      <g>
        <polygon points="249.96 23.64 249.96 72.84 203.06 72.84 203.06 23.64 185.23 23.64 185.23 128.34 203.06 128.34 203.06 89.66 249.96 89.66 249.96 128.34 267.79 128.34 267.79 23.64 249.96 23.64" style="fill: #fff;"/>
        <path d="M327.47,23.64h-45.41v104.7h17.83v-38.38h27.57c18.46,0,33.47-14.85,33.47-33.09s-15.02-33.22-33.47-33.22Zm-27.57,17.2h27.07c8.91,0,16.15,7.19,16.15,16.03s-7.25,15.9-16.15,15.9h-27.07v-31.92Z" style="fill: #fff;"/>
        <path d="M457.26,114.78c-9.89,9.17-22.84,14.4-36.37,14.4-29.53,0-53.54-24.15-53.54-53.69s24.01-53.54,53.54-53.54c13.53,0,26.48,4.95,36.37,14.11l-12.8,13.82c-6.4-5.97-14.84-9.31-23.57-9.31-19.2,0-34.77,15.71-34.77,34.92s15.57,34.92,34.77,34.92c8.87,0,17.31-3.35,23.71-9.31l12.66,13.68Z" style="fill: #fff;"/>
        <path d="M550.64,114.78c-9.89,9.17-22.84,14.4-36.37,14.4-29.53,0-53.54-24.15-53.54-53.69s24.01-53.54,53.54-53.54c13.53,0,26.48,4.95,36.37,14.11l-12.8,13.82c-6.4-5.97-14.84-9.31-23.57-9.31-19.2,0-34.77,15.71-34.77,34.92s15.57,34.92,34.77,34.92c8.87,0,17.31-3.35,23.71-9.31l12.66,13.68Z" style="fill: #fff;"/>
      </g>
      <g>
        <path d="M207.28,174.43c0,5.86-5.52,7.79-11.23,7.79-3.9,0-7.34-.91-10.82-2.91l2.46-3.9c2.69,1.48,5.71,2.42,8.55,2.42,3.63,0,5.98-.95,5.98-3.14,0-2.42-3.21-3.33-6.73-4.43-4.58-1.4-9.72-2.99-9.72-8.32,0-2.12,.91-3.9,2.65-5.18,1.89-1.36,4.69-2.08,8.13-2.08s6.73,.91,10.21,2.91l-2.38,3.78c-2.72-1.51-5.26-2.35-8.06-2.35-3.71,0-5.48,1.13-5.48,2.72,0,2.5,3.29,3.37,6.92,4.5,4.46,1.4,9.53,3.14,9.53,8.17Z" style="fill: #fff;"/>
        <path d="M265.43,155.21l-10.78,15.92v10.52h-4.88v-10.52l-10.74-15.92h5.56l7.64,11.31,7.64-11.31h5.56Z" style="fill: #fff;"/>
        <path d="M318.44,174.43c0,5.86-5.52,7.79-11.23,7.79-3.9,0-7.34-.91-10.82-2.91l2.46-3.9c2.69,1.48,5.71,2.42,8.55,2.42,3.63,0,5.98-.95,5.98-3.14,0-2.42-3.21-3.33-6.73-4.43-4.58-1.4-9.72-2.99-9.72-8.32,0-2.12,.91-3.9,2.65-5.18,1.89-1.36,4.69-2.08,8.13-2.08s6.73,.91,10.21,2.91l-2.38,3.78c-2.72-1.51-5.26-2.35-8.06-2.35-3.71,0-5.48,1.13-5.48,2.72,0,2.5,3.29,3.37,6.92,4.5,4.46,1.4,9.53,3.14,9.53,8.17Z" style="fill: #fff;"/>
        <path d="M374.7,155.21v4.54h-9.27v21.9h-4.84v-21.9h-9.27v-4.54h23.38Z" style="fill: #fff;"/>
        <path d="M413.98,159.75v6.39h13.58v4.58h-13.58v6.35h16.42v4.58h-21.3v-26.44h21.3v4.54h-16.42Z" style="fill: #fff;"/>
        <path d="M494.3,181.66h-4.84v-17.36l-8.17,11.42h-2.84l-8.17-11.42v17.36h-4.88v-26.44h3.82l10.63,14.9,10.67-14.9h3.78v26.44Z" style="fill: #fff;"/>
        <path d="M550.64,174.43c0,5.86-5.52,7.79-11.23,7.79-3.9,0-7.34-.91-10.82-2.91l2.46-3.9c2.69,1.48,5.71,2.42,8.55,2.42,3.63,0,5.98-.95,5.98-3.14,0-2.42-3.21-3.33-6.73-4.43-4.58-1.4-9.72-2.99-9.72-8.32,0-2.12,.91-3.9,2.65-5.18,1.89-1.36,4.69-2.08,8.13-2.08s6.73,.91,10.21,2.91l-2.38,3.78c-2.72-1.51-5.26-2.35-8.06-2.35-3.71,0-5.48,1.13-5.48,2.72,0,2.5,3.29,3.37,6.92,4.5,4.46,1.4,9.53,3.14,9.53,8.17Z" style="fill: #fff;"/>
      </g>
      <g>
        <circle cx="81.95" cy="81.95" r="81.95" style="fill: #347faa;"/>
        <path d="M78.58,48.84c6.6,4.33,16.44,.43,16.22-8.68,0,0,0,0,0-.01s0,0,0-.01c0,0,0,0,0-.01s0,0,0-.01c0,0,0,0,0-.01,0,0,0,0,0-.01,0,0,0,0,0,0,0,0,0,0,0-.01-1.07-7.57-7.8-9.79-12.23-8.95-8.97,1.71-11.46,12.79-3.98,17.71Z" style="fill: #fff;"/>
        <path d="M74.29,122.72h0s0,.01,0,.02c0,0,0,0,0,0,0,0,0,0,0,0s0,0,0,0c0,0,0,0,0,0,0,0,0,0,0,0,0,0,0,0,0,0-.19,9.67,11.57,13.12,17.66,7.29,2.33-2.23,2.66-4.69,2.83-5.88,.18-7.76-6.46-10.35-10.68-10.16-3.22,.14-8.9,2.14-9.8,8.69Z" style="fill: #fff;"/>
        <path d="M99.52,112.51c7.45,6.41,19.21,1.37,19.66-8.43-.09-8.73-7.3-12.09-12.39-11.7-10.5,.82-15.06,13.42-7.27,20.13Z" style="fill: #fff;"/>
        <path d="M124.12,92.72c7.56,6.34,19.87,2.09,20.49-9.99,0-7.8-6.35-13.72-13.86-12.93-11,1.15-15.22,15.72-6.64,22.92Z" style="fill: #fff;"/>
        <path d="M95.58,61.36s0,0,0,0c0,0,0,0,0,0,0,0,0,0,0,0,0,0,0,0,0,0,0,0,0,0,0,0,0,0,0,0,0,0,0,0,0,0,0,0,0,0,0,0,0,0,1.09,11.81,14.91,14.82,21.05,7.1,2.36-2.97,2.41-6.02,2.43-7.48h0s0,0,0,0h0s0,0,0,0c0,0,0,0,0,0h0s0,0,0,0c0,0,0,0,0,0-.78-8.96-8.29-12.15-13.37-11.55-3.45,.4-9.99,3.41-10.11,11.9Z" style="fill: #fff;"/>
        <g>
          <path d="M51.79,112.51c7.45,6.41,19.21,1.37,19.66-8.43-.09-8.73-7.3-12.09-12.39-11.7-10.5,.82-15.06,13.42-7.27,20.13Z" style="fill: #8dd4ff;"/>
          <path d="M76.4,92.72c7.56,6.34,19.87,2.09,20.49-9.99,0-7.8-6.35-13.72-13.86-12.93-11,1.15-15.22,15.72-6.64,22.92Z" style="fill: #8dd4ff;"/>
          <path d="M47.86,61.36s0,0,0,0c0,0,0,0,0,0,0,0,0,0,0,0,0,0,0,0,0,0,0,0,0,0,0,0,0,0,0,0,0,0,0,0,0,0,0,0,0,0,0,0,0,0,1.09,11.81,14.91,14.82,21.05,7.1,2.36-2.97,2.41-6.02,2.43-7.48h0s0,0,0,0h0s0,0,0,0c0,0,0,0,0,0h0s0,0,0,0c0,0,0,0,0,0-.78-8.96-8.29-12.15-13.37-11.55-3.45,.4-9.99,3.41-10.11,11.9Z" style="fill: #8dd4ff;"/>
        </g>
        <path d="M27.9,92.72c7.56,6.34,19.87,2.09,20.49-9.99,0-7.8-6.35-13.72-13.86-12.93-11,1.15-15.22,15.72-6.64,22.92Z" style="fill: #00af91;"/>
      </g>
    </g>
    <path d="M563.94,25.65h-2.56v-2.01h7.3v2.01h-2.54v6.59h-2.2v-6.59Zm7.31-2.01h2.56l1.18,2.92,.66,1.98h.11l.69-1.98,1.16-2.92h2.54v8.6h-2.01v-3.14l.25-3.06h-.11l-1.76,4.91h-1.6l-1.76-4.91h-.11l.25,3.06v3.14h-2.04v-8.6Z" style="fill: #fff;"/>
  </g>
</svg>